# xmcd
#
# Track frame offsets: 
#        150
#        18047
#        37454
#        57641
#        81955
#        106072
#        128691
#        151292
#        173731
#        196078
#        214986
#        237775
#        257083
#        276897
#        292426
#        308646
#
# Disc length: 4319 seconds
#
# Revision: 1
# Processed by: cddbd v1.5.2PL0 Copyright (c) Steve Scherf et al.
# Submitted via: ExactAudioCopy v0.99pb4
#
DISCID=e610dd10
DTITLE=Stephen King - The Drawing of the Three - The Dark Tower II - 0
DTITLE=1 of 11
DYEAR=1998
DGENRE=
TTITLE0=01 Argument 01
TTITLE1=02 Argument 02, Prologue 01
TTITLE2=03 Prologue 02
TTITLE3=04 Prologue 03, Section 01 The Prisoner
TTITLE4=05 Section 01 Chapter 01, The Door, Part 01A
TTITLE5=06 Section 01 Chapter 01 Part 01B
TTITLE6=07 Section 01 Chapter 01 Part 01C
TTITLE7=08 Section 01 Chapter 01 Part 01D
TTITLE8=09 Section 01 Chapter 01 Part 01E
TTITLE9=10 Section 01 Chapter 01 Part 01F
TTITLE10=11 Section 01 Chapter 01 Part 01G
TTITLE11=12 Section 01 Chapter 01 Part 02A
TTITLE12=13 Section 01 Chapter 01 Part 02B
TTITLE13=14 Section 01 Chapter 01 Part 02C
TTITLE14=15 Section 01 Chapter 01 Part 02D
TTITLE15=16 Section 01 Chapter 01 Part 02E
EXTD=
EXTT0=
EXTT1=
EXTT2=
EXTT3=
EXTT4=
EXTT5=
EXTT6=
EXTT7=
EXTT8=
EXTT9=
EXTT10=
EXTT11=
EXTT12=
EXTT13=
EXTT14=
EXTT15=
PLAYORDER=
